<svg
  xmlns="http://www.w3.org/2000/svg"
  viewBox="0 0 80 64"
  width="24"
  height="24"
  fill="none"
>
  <path d="M77.7572 44.3133L74.7776 39.3112L60.374 47.7838L76.371 28.1129L78.7887 26.7426L78.2517 25.8042L79.2907 24.5233L75.9989 21.877L75.5743 21.1372L75.2821 21.301L74.2406 20.4669L72.0927 23.1083L25.3405 49.6009L42.5388 29.6321L74.6577 12.6348L71.6056 6.93759L54.1126 16.1946L62.7242 6.19782L57.789 2L38.4028 24.5084L19.1465 34.7013L33.8897 15.8843L43.1257 11.2446L40.1936 5.48536L13.2771 19.0122L20.62 9.63601L15.495 5.67154L0 25.4666L0.242265 25.6528L3.13696 31.3425L20.3103 22.7111L4.65799 42.6873L7.21801 44.6708L8.74403 47.5182L26.8315 37.9459L6.9183 61.0674L11.851 65.2652L12.8426 64.1133L60.881 36.8908L44.9315 56.5022L45.1912 56.7107L45.1662 56.7281L48.473 62.2813L69.685 49.8045L61.5204 62.5295L66.9951 66L80 45.7358L77.7572 44.3133Z" fill="#F03E2F"/>
</svg>